<?xml version="1.0" standalone="no"?>
<!DOCTYPE svg PUBLIC "-//W3C//DTD SVG 20010904//EN"
 "http://www.w3.org/TR/2001/REC-SVG-20010904/DTD/svg10.dtd">
<svg version="1.0" xmlns="http://www.w3.org/2000/svg"
 width="474.000000pt" height="474.000000pt" viewBox="0 0 474.000000 474.000000"
 preserveAspectRatio="xMidYMid meet">
<metadata>
Created by potrace 1.14, written by Peter Selinger 2001-2017
</metadata>
<g transform="translate(0.000000,474.000000) scale(0.100000,-0.100000)"
fill="#000000" stroke="none">
<path d="M2815 4609 c-22 -4 -54 -10 -71 -13 -114 -21 -280 -95 -378 -168
-199 -149 -346 -381 -391 -618 -11 -59 -14 -262 -5 -320 24 -148 33 -175 100
-313 l43 -87 56 57 56 58 -37 87 c-21 48 -40 102 -43 119 -3 18 -8 35 -10 39
-22 35 -21 327 2 363 2 4 7 19 9 34 3 15 19 60 35 100 81 195 232 350 425 439
43 20 82 37 88 38 6 1 20 5 31 9 126 41 336 37 475 -9 94 -31 127 -47 215
-106 90 -59 215 -181 215 -208 0 -5 3 -10 8 -10 4 0 12 -10 18 -23 58 -113 75
-150 93 -205 47 -146 47 -341 -1 -490 -54 -171 -158 -319 -298 -424 -79 -59
-220 -126 -300 -142 -8 -2 -33 -7 -55 -11 -149 -29 -366 0 -497 66 l-38 19
-42 -43 c-75 -76 -74 -73 -36 -94 80 -43 202 -86 278 -99 226 -37 410 -15 608
73 242 107 460 361 535 623 29 99 36 153 36 260 0 109 0 109 -11 174 -5 33
-10 68 -11 78 -1 10 -5 18 -10 18 -4 0 -6 4 -3 9 8 12 -58 174 -95 234 -16 26
-29 52 -29 57 0 6 -4 10 -8 10 -4 0 -15 13 -24 28 -32 54 -166 180 -250 234
-118 77 -267 138 -373 154 -60 8 -271 11 -310 3z"/>
<path d="M2840 4052 c-204 -53 -346 -251 -327 -457 9 -92 9 -93 56 -183 12
-24 21 -45 19 -47 -2 -2 -82 -85 -178 -185 -96 -100 -206 -215 -245 -255 -38
-40 -164 -170 -280 -290 -115 -120 -240 -248 -277 -286 l-67 -68 -68 3 c-284
13 -438 -319 -241 -521 83 -86 207 -114 323 -75 33 11 62 17 65 14 3 -4 61
-45 130 -91 69 -47 126 -89 128 -93 2 -4 8 -8 14 -8 5 0 15 -6 23 -13 7 -6 56
-41 109 -77 53 -36 132 -90 175 -120 43 -30 124 -86 180 -125 238 -164 327
-226 344 -240 9 -8 19 -15 21 -15 3 0 50 -32 105 -71 l100 -70 -1 -48 c-2 -55
16 -105 49 -141 13 -14 23 -28 23 -31 0 -4 23 -16 51 -28 156 -67 320 46 306
210 -7 89 -44 142 -124 180 -57 27 -108 29 -166 7 -27 -10 -54 -15 -61 -11 -7
5 -119 82 -249 173 -131 91 -245 170 -255 175 -9 6 -19 12 -22 15 -14 15 -111
80 -119 80 -5 0 -11 4 -13 8 -1 5 -55 44 -118 88 -206 141 -395 272 -407 283
-7 6 -16 11 -20 11 -5 0 -20 11 -35 25 -15 14 -31 25 -36 25 -25 0 -29 23 -11
70 13 34 17 68 15 121 -3 77 -15 113 -53 165 -13 17 -23 34 -23 37 0 3 26 32
58 65 84 86 489 505 569 588 37 40 142 149 233 242 l164 170 46 -23 c60 -31
117 -45 182 -46 65 -2 150 10 162 22 6 5 16 9 23 9 21 0 113 63 154 104 155
157 158 436 5 598 -119 126 -272 172 -436 130z"/>
<path d="M1340 2833 c-44 -7 -164 -36 -180 -43 -8 -4 -40 -18 -70 -31 -166
-72 -322 -224 -412 -404 -26 -51 -57 -134 -63 -170 -2 -11 -7 -33 -11 -50 -11
-48 -13 -235 -4 -295 37 -227 161 -424 360 -571 33 -24 192 -108 208 -109 4 0
25 -5 47 -11 22 -6 54 -13 70 -16 17 -3 48 -8 70 -12 96 -16 270 3 384 44 53
18 156 70 194 97 l28 20 -68 47 -68 47 -35 -17 c-67 -33 -127 -58 -151 -63
-13 -3 -46 -9 -72 -14 -51 -10 -188 -9 -250 2 -91 17 -235 83 -297 136 -102
87 -149 145 -199 246 -174 352 -25 783 330 948 160 74 331 90 488 43 l45 -13
58 61 57 60 -42 18 c-73 32 -168 49 -282 52 -60 1 -121 1 -135 -2z"/>
<path d="M2100 2415 l-54 -55 23 -42 c90 -167 112 -388 56 -547 -13 -37 -12
-39 11 -51 13 -8 24 -17 24 -22 0 -4 5 -8 10 -8 6 0 24 -10 41 -22 36 -27 40
-22 65 62 29 101 34 136 34 255 0 97 -2 117 -19 185 -7 25 -14 56 -17 70 -7
32 -92 206 -108 219 -9 8 -27 -5 -66 -44z"/>
<path d="M3056 1333 c-74 -12 -226 -74 -226 -91 1 -9 77 -62 90 -62 6 0 10 -4
10 -8 0 -13 48 -33 54 -23 10 15 99 34 169 36 127 4 243 -44 338 -138 32 -33
59 -64 59 -69 0 -5 8 -22 19 -36 52 -75 69 -234 36 -345 -42 -143 -160 -262
-310 -313 -57 -19 -159 -23 -225 -8 -154 35 -280 140 -332 278 -26 67 -29 80
-32 150 l-3 59 -67 50 c-37 27 -70 47 -72 44 -8 -8 -20 -92 -18 -129 5 -120
21 -187 66 -278 77 -156 245 -289 413 -326 51 -11 219 -13 260 -3 22 5 48 11
57 14 9 2 39 14 65 26 26 12 50 23 53 23 3 1 18 10 35 21 122 81 214 201 258
340 30 94 31 273 2 355 -11 30 -20 57 -20 60 -1 3 -13 28 -27 55 -122 235
-386 363 -652 318z"/>
</g>
</svg>
